Coordinates
version=1
nRows=7
nColumns=46
inDegrees=yes

Units are S.I. units (second, meters, Newtons, ...)
Angles are in degrees.

endheader
time	pelvis_tilt	pelvis_list	pelvis_rotation	pelvis_tx	pelvis_ty	pelvis_tz	bb_angle	bb_tx	bb_ty	bb_tz	hip_flexion_r	hip_adduction_r	hip_rotation_r	knee_angle_r	knee_angle_r_beta	ankle_angle_r	subtalar_angle_r	mtp_angle_r	crank_angle_r	hip_flexion_l	hip_adduction_l	hip_rotation_l	knee_angle_l	knee_angle_l_beta	ankle_angle_l	subtalar_angle_l	mtp_angle_l	crank_angle_l	lumbar_extension	lumbar_bending	lumbar_rotation	arm_flex_r	arm_add_r	arm_rot_r	elbow_flex_r	pro_sup_r	wrist_flex_r	wrist_dev_r	arm_flex_l	arm_add_l	arm_rot_l	elbow_flex_l	pro_sup_l	wrist_flex_l	wrist_dev_l
      0.00500000	    -17.97906450	      4.98256939	      6.39656644	      0.10689390	      1.07066925	     -0.25686465	      0.00000000	      0.50000000	      0.00000000	      0.25000000	     48.00464740	    -12.50544212	     -2.05467085	     59.57644073	      1.03980505	     10.73180598	     -8.84038087	      0.00000000	      0.00000000	     92.34199432	      1.43024739	     -3.38813992	     99.17817895	      1.73098577	     21.01301910	     -6.17974415	      0.00000000	      0.00000000	    -49.69566436	     -1.52723195	     -9.63309584	     89.45018867	     -5.87615207	     41.94212959	     24.71875363	     25.07376429	      0.00000000	      0.00000000	     89.47499305	     -8.48697791	     40.87464417	     33.16341089	     25.56436122	      0.00000000	      0.00000000
      0.01000000	    -17.85352029	      4.96487018	      6.39986005	      0.10683954	      1.07077458	     -0.25692785	      0.00000000	      0.50000000	      0.00000000	      0.25000000	     47.85631921	    -12.51448343	     -2.13584608	     59.52882495	      1.03897400	     10.69028504	     -8.86077578	      0.00000000	      0.00000000	     92.24882825	      1.43415446	     -3.37188295	     99.25593045	      1.73234279	     21.07078196	     -6.16105189	      0.00000000	      0.00000000	    -49.85400023	     -1.48394159	     -9.63285681	     89.44120161	     -5.86797176	     41.17464148	     24.82040730	     26.06801241	      0.00000000	      0.00000000	     89.46977531	     -8.50688940	     40.41104659	     33.15808027	     26.57828163	      0.00000000	      0.00000000
      0.01500000	    -18.00339017	      4.93932865	      6.35598950	      0.10682155	      1.07045564	     -0.25687751	      0.00000000	      0.50000000	      0.00000000	      0.25000000	     48.05201150	    -12.45834194	     -2.08794784	     59.53994809	      1.03916813	     10.65944862	     -8.88616254	      0.00000000	      0.00000000	     92.44096892	      1.36386062	     -3.35950978	     99.30859376	      1.73326194	     21.01523105	     -6.14862952	      0.00000000	      0.00000000	    -49.64247012	     -1.53158643	     -9.59316856	     89.45210713	     -5.91254280	     41.76309735	     24.16977466	     28.22153618	      0.00000000	      0.00000000	     89.47791729	     -8.73213595	     41.24828352	     32.75395114	     28.79793597	      0.00000000	      0.00000000
      0.02000000	    -17.94616286	      4.91622093	      6.34794788	      0.10679121	      1.07056332	     -0.25674598	      0.00000000	      0.50000000	      0.00000000	      0.25000000	     47.95443304	    -12.41672014	     -2.11397606	     59.42576540	      1.03717527	     10.58697301	     -8.93519830	      0.00000000	      0.00000000	     92.40887464	      1.30009656	     -3.35639439	     99.35219810	      1.73402298	     21.05306489	     -6.09610444	      0.00000000	      0.00000000	    -49.70178970	     -1.53463509	     -9.56473475	     89.44347570	     -5.50861324	     39.83169281	     23.71270166	     29.95953220	      0.00000000	      0.00000000	     89.47444869	     -8.39111855	     40.11694020	     32.19062447	     30.60665055	      0.00000000	      0.00000000
      0.02500000	    -17.98807289	      4.91612435	      6.34821604	      0.10674251	      1.07054339	     -0.25676298	      0.00000000	      0.50000000	      0.00000000	      0.25000000	     47.99307476	    -12.41067796	     -2.10996437	     59.39082310	      1.03656541	     10.56462393	     -8.92939555	      0.00000000	      0.00000000	     92.45794210	      1.27432632	     -3.38316609	     99.36270147	      1.73420629	     21.02399092	     -6.08844792	      0.00000000	      0.00000000	    -49.66049268	     -1.53179186	     -9.57828334	     89.44804761	     -5.54010028	     40.00478625	     23.69139443	     30.38512484	      0.00000000	      0.00000000	     89.48552897	     -8.35657125	     40.14931036	     32.00702128	     30.98491101	      0.00000000	      0.00000000
      0.03000000	    -17.97500750	      4.89986898	      6.37345033	      0.10670025	      1.07062748	     -0.25680395	      0.00000000	      0.50000000	      0.00000000	      0.25000000	     47.96184074	    -12.43069570	     -2.16585698	     59.34879300	      1.03583184	     10.54914199	     -8.89387546	      0.00000000	      0.00000000	     92.45445657	      1.30411243	     -3.36674448	     99.37623452	      1.73444249	     21.06793731	     -6.03374305	      0.00000000	      0.00000000	    -49.68606051	     -1.49576324	     -9.56306777	     89.44386329	     -5.42154198	     39.12185715	     23.60721664	     31.48577547	      0.00000000	      0.00000000	     89.48741432	     -8.22370550	     39.65116162	     31.75225752	     32.12109324	      0.00000000	      0.00000000
      0.03500000	    -17.99681656	      4.88736560	      6.34081965	      0.10670316	      1.07053492	     -0.25677198	      0.00000000	      0.50000000	      0.00000000	      0.25000000	     48.00948283	    -12.40000780	     -2.14911876	     59.36283225	      1.03607688	     10.49735034	     -8.92977902	      0.00000000	      0.00000000	     92.48896329	      1.25989650	     -3.33871971	     99.41310149	      1.73508594	     21.10431015	     -5.99121243	      0.00000000	      0.00000000	    -49.64493915	     -1.51967375	     -9.53387980	     89.44767561	     -5.47508788	     39.42798978	     23.43748850	     31.79191978	      0.00000000	      0.00000000	     89.48642493	     -8.26888883	     39.85161435	     31.70948758	     32.42970145	      0.00000000	      0.00000000
